HIERARCHY
ROOT Hips
{
	OFFSET 0.000000 0.000000 0.000000 
	CHANNELS 6 Xposition Yposition Zposition Yrotation Zrotation Xrotation 
	JOINT Lumbar
	{
		OFFSET 0.000000 0.000000 0.000000 
		CHANNELS 3 Zrotation Xrotation Yrotation
		JOINT Neck
		{
			OFFSET 0.000000 0.445665 0.000000 
			CHANNELS 3 Zrotation Xrotation Yrotation
			End Site
			{
				OFFSET 0.000000 0.227535 0.000000 
			}
		}
		JOINT RightShoulder
		{
			OFFSET 0.019635 0.377685 0.194865 
			CHANNELS 3 Zrotation Xrotation Yrotation
			JOINT RightElbow
			{
				OFFSET 0.000000 -0.243375 0.000000 
				CHANNELS 2 Zrotation Yrotation
				JOINT RightWrist
				{
					OFFSET 0.000000 -0.264825 0.000000 
					CHANNELS 2 Zrotation Xrotation
					End Site
					{
						OFFSET 0.006600 -0.176220 0.000990 
					}
				}
			}
		}
		JOINT LeftShoulder
		{
			OFFSET 0.019635 0.377685 -0.194865 
			CHANNELS 3 Zrotation Xrotation Yrotation
			JOINT LeftElbow
			{
				OFFSET 0.000000 -0.243375 0.000000 
				CHANNELS 2 Zrotation Yrotation
				JOINT LeftWrist
				{
					OFFSET 0.000000 -0.264825 0.000000 
					CHANNELS 2 Zrotation Xrotation
					End Site
					{
						OFFSET 0.006600 -0.176220 -0.000990 
					}
				}
			}
		}
	}
	JOINT RightHip
	{
		OFFSET 0.052140 -0.069960 0.075570 
		CHANNELS 3 Zrotation Xrotation Yrotation
		JOINT RightKnee
		{
			OFFSET 0.000000 -0.402270 0.000000 
			CHANNELS 1 Zrotation
			JOINT RightAnkle
			{
				OFFSET 0.000000 -0.404085 0.000000 
				CHANNELS 3 Zrotation Xrotation Yrotation
				End Site
				{
					OFFSET 0.204105 -0.089430 0.008415 
				}
			}
		}
	}
	JOINT LeftHip
	{
		OFFSET 0.052140 -0.069960 -0.075570 
		CHANNELS 3 Zrotation Xrotation Yrotation
		JOINT LeftKnee
		{
			OFFSET 0.000000 -0.402270 0.000000 
			CHANNELS 1 Zrotation
			JOINT LeftAnkle
			{
				OFFSET 0.000000 -0.404085 0.000000 
				CHANNELS 3 Zrotation Xrotation Yrotation
				End Site
				{
					OFFSET 0.204105 -0.089430 -0.008415 
				}
			}
		}
	}
}
MOTION
Frames: 31
Frame Time: 0.02
-9e-05 -4e-05 -6e-05 23.17338 -29.50111 -7.66157 48.05865 2.95909 -2.77425 -11.03002 -2.65352 -1.54377 37.67794 -105.29619 55.63346 8.11445 90.29096 7.78641 -2.09825 14.0573 106.87636 -55.63541 8.93281 -94.51415 4.16299 3.0987 44.81329 -4.70102 -9.44667 -21.54029 -6.82337 -1.83815 -3.14858 48.87347 10.33864 5.03041 -26.84989 -7.14581 1.92542 3.20796
-8e-05 -4e-05 -2e-05 23.17168 -29.50492 -7.66646 48.06235 2.96091 -2.77399 -11.01962 -2.6595 -1.54388 37.77628 -105.28776 55.63352 8.09752 90.28855 7.7705 -2.10005 14.04751 106.87822 -55.63509 8.92508 -94.51173 4.12042 3.07744 44.81795 -4.67848 -9.3687 -21.53522 -6.8235 -1.84519 -3.15195 48.88085 10.33822 4.99766 -26.85235 -7.14622 1.9283 3.20885
-8e-05 -4e-05 2e-05 23.16998 -29.50872 -7.67135 48.06604 2.96272 -2.77375 -11.00925 -2.66545 -1.54399 37.87442 -105.27937 55.63359 8.08066 90.28614 7.75461 -2.10184 14.03787 106.88014 -55.63477 8.91742 -94.50938 4.0779 3.05621 44.82259 -4.656 -9.29103 -21.53016 -6.82362 -1.8522 -3.15531 48.8882 10.33784 4.96516 -26.85481 -7.14662 1.93115 3.20972
-7e-05 -4e-05 7e-05 23.16828 -29.51251 -7.67624 48.06973 2.96453 -2.77349 -10.99888 -2.67141 -1.5441 37.97247 -105.27096 55.63365 8.06378 90.28373 7.73875 -2.10364 14.02813 106.882 -55.63445 8.90971 -94.50698 4.03546 3.03501 44.82723 -4.63353 -9.21332 -21.5251 -6.82374 -1.85921 -3.15867 48.89556 10.33743 4.93254 -26.85727 -7.14703 1.93401 3.2106
-6e-05 -4e-05 0.00011 23.16658 -29.51632 -7.68113 48.07344 2.96636 -2.77323 -10.98849 -2.67738 -1.54421 38.0707 -105.26249 55.63372 8.04683 90.28133 7.72287 -2.10545 14.01817 106.88377 -55.63412 8.90192 -94.50449 3.993 3.01378 44.83188 -4.61098 -9.13525 -21.52003 -6.82386 -1.86624 -3.16204 48.90293 10.33696 4.89963 -26.85974 -7.14743 1.93691 3.2115
-6e-05 -4e-05 0.00015 23.1649 -29.52009 -7.68602 48.07708 2.96813 -2.77302 -10.97814 -2.6833 -1.54431 38.16866 -105.2543 55.63378 8.03016 90.2789 7.70698 -2.10719 14.00919 106.88599 -55.63381 8.89453 -94.50243 3.95032 2.99257 44.83648 -4.58867 -9.05842 -21.515 -6.82399 -1.87321 -3.16537 48.91024 10.33679 4.86799 -26.86219 -7.14783 1.93966 3.21234
-5e-05 -4e-05 0.00019 23.16318 -29.52393 -7.6909 48.08086 2.97002 -2.7727 -10.96771 -2.68932 -1.54442 38.26699 -105.24554 55.63385 8.01293 90.27652 7.69113 -2.10906 13.9983 106.88733 -55.63351 8.88633 -94.4995 3.9082 2.97135 44.8412 -4.56591 -8.97923 -21.5099 -6.82411 -1.88031 -3.16879 48.91768 10.33602 4.83384 -26.86467 -7.14824 1.94269 3.21328
-4e-05 -4e-05 0.00024 23.16149 -29.52771 -7.69579 48.08451 2.97179 -2.77247 -10.95738 -2.69525 -1.54453 38.36511 -105.23731 55.63392 7.99624 90.27409 7.67523 -2.11083 13.9891 106.88944 -55.63311 8.87889 -94.49738 3.86544 2.95013 44.8458 -4.54355 -8.90213 -21.50486 -6.82423 -1.88728 -3.17213 48.92499 10.33579 4.80196 -26.86712 -7.14864 1.94548 3.21413
-4e-05 -4e-05 0.00028 23.15984 -29.53142 -7.70069 48.08798 2.97345 -2.7724 -10.94708 -2.70106 -1.54464 38.46251 -105.22975 55.63397 7.98011 90.27162 7.65934 -2.11242 13.98226 106.89266 -55.63293 8.87234 -94.49624 3.82235 2.92894 44.85028 -4.52173 -8.82792 -21.49988 -6.82436 -1.89411 -3.17536 48.93218 10.33628 4.77306 -26.86954 -7.14905 1.94791 3.21486
-3e-05 -4e-05 0.00032 23.15799 -29.53553 -7.70555 48.09243 2.97585 -2.77159 -10.93635 -2.70755 -1.54474 38.56265 -105.2184 55.63407 7.96045 90.26947 7.6436 -2.11488 13.96272 106.89001 -55.63252 8.86054 -94.48941 3.78249 2.90765 44.85551 -4.49697 -8.73809 -21.49453 -6.82446 -1.90179 -3.17916 48.94018 10.33279 4.72761 -26.87215 -7.14947 1.95222 3.21626
-2e-05 -4e-05 0.00036 23.15654 -29.53878 -7.71047 48.09486 2.97665 -2.77219 -10.92669 -2.7126 -1.54487 38.65791 -105.21497 55.63408 7.94846 90.26657 7.62738 -2.11557 13.9694 106.89939 -55.63195 8.85991 -94.49463 3.73502 2.88655 44.85914 -4.4783 -8.68054 -21.48996 -6.82462 -1.90767 -3.18179 48.9464 10.33758 4.7167 -26.87436 -7.14984 1.95265 3.21627
0 -3e-05 0.0004 23.1566 -29.53998 -7.71572 48.0913 2.97312 -2.77789 -10.91854 -2.71353 -1.54506 38.73263 -105.23416 55.63383 7.95669 90.26183 7.61066 -2.11095 14.05427 106.94488 -55.63323 8.88948 -94.53268 3.6729 2.86601 44.85852 -4.47744 -8.71834 -21.48756 -6.82501 -1.9085 -3.18104 48.94825 10.3662 4.80454 -26.87558 -7.15013 1.94179 3.21229
3e-05 -2e-05 0.00044 23.15703 -29.54029 -7.721 48.08582 2.96797 -2.78482 -10.91173 -2.71304 -1.54527 38.80402 -105.26124 55.63346 7.97335 90.25613 7.59296 -2.10468 14.16483 107.00173 -55.63194 8.93045 -94.58273 3.60196 2.84555 44.85629 -4.48253 -8.78741 -21.48595 -6.82546 -1.90753 -3.17915 48.94825 10.40289 4.92626 -26.87641 -7.15036 1.92715 3.20694
5e-05 -2e-05 0.00047 23.15699 -29.5408 -7.72615 48.08151 2.96355 -2.79031 -10.90522 -2.71328 -1.54548 38.88133 -105.28401 55.63319 7.98594 90.25092 7.5756 -2.0994 14.25892 107.0516 -55.63285 8.96633 -94.62759 3.531 2.82516 44.8547 -4.48414 -8.8376 -21.48397 -6.82587 -1.90744 -3.1779 48.94874 10.43518 5.02993 -26.87737 -7.15059 1.91466 3.20231
8e-05 -1e-05 0.00051 23.15808 -29.54211 -7.73177 48.07588 2.95923 -2.79933 -10.89484 -2.71311 -1.54566 38.93911 -105.30944 55.63284 7.99717 90.24614 7.56009 -2.0929 14.37123 107.10984 -55.63755 9.00135 -94.6719 3.47712 2.80476 44.85346 -4.48888 -8.90712 -21.482 -6.82636 -1.90709 -3.17611 48.9506 10.47068 5.14509 -26.8785 -7.15096 1.90035 3.19724
0.0001 0 0.00054 23.15708 -29.54161 -7.73642 48.07262 2.95422 -2.80152 -10.89291 -2.71352 -1.54592 39.03792 -105.33168 55.63248 8.01625 90.2394 7.53873 -2.08879 14.45428 107.1525 -55.62356 9.04148 -94.71955 3.38547 2.78388 44.85117 -4.48869 -8.94436 -21.48025 -6.82667 -1.90686 -3.17519 48.94931 10.50129 5.24405 -26.87921 -7.15101 1.88893 3.19279
0.00013 1e-05 0.00054 23.14877 -29.53575 -7.73857 48.07571 2.94838 -2.78235 -10.91342 -2.71543 -1.54639 39.24276 -105.33886 55.63271 8.03059 90.2339 7.51566 -2.08953 14.42908 107.15607 -55.64385 9.08835 -94.77796 3.19266 2.76609 44.8457 -4.47198 -8.87965 -21.47835 -6.82652 -1.90724 -3.17706 48.93842 10.51739 5.29247 -26.87869 -7.15018 1.88652 3.19036
0.00016 2e-05 0.00053 23.13859 -29.52819 -7.7397 48.08138 2.94175 -2.75667 -10.94256 -2.71805 -1.54694 39.49163 -105.3432 55.63234 8.05807 90.22483 7.48342 -2.09299 14.3783 107.14203 -55.62828 9.14132 -94.83785 2.96215 2.74697 44.83934 -4.45039 -8.78232 -21.47674 -6.82617 -1.90784 -3.17983 48.92464 10.52811 5.32293 -26.87781 -7.14903 1.88714 3.18861
0.00019 2e-05 0.00053 23.13026 -29.52182 -7.74119 48.08625 2.93505 -2.73541 -10.96805 -2.72063 -1.54746 39.72426 -105.35185 55.63246 8.09428 90.21371 7.44696 -2.09686 14.35208 107.13201 -55.57475 9.1939 -94.89489 2.74802 2.72562 44.83385 -4.43197 -8.70331 -21.47534 -6.82587 -1.90849 -3.18214 48.91311 10.54065 5.35995 -26.87722 -7.14805 1.8863 3.18658
0.00023 3e-05 0.00052 23.11785 -29.51375 -7.74316 48.08937 2.93017 -2.70802 -10.99221 -2.72195 -1.54795 39.93632 -105.34867 55.63363 8.06474 90.21979 7.44869 -2.09439 14.26885 107.14038 -55.75516 9.23479 -94.9641 2.53597 2.71639 44.82642 -4.40971 -8.61065 -21.47254 -6.82576 -1.9085 -3.18465 48.89768 10.55612 5.4049 -26.87608 -7.14698 1.88567 3.18439
0.00024 4e-05 0.00052 23.1133 -29.50871 -7.74384 48.0969 2.92128 -2.69182 -11.02147 -2.72611 -1.54853 40.20738 -105.36856 55.62999 8.18014 90.18704 7.36519 -2.10497 14.3021 107.10467 -55.43359 9.30388 -95.00494 2.31171 2.6814 44.82276 -4.39424 -8.53825 -21.4727 -6.8252 -1.90984 -3.18694 48.88957 10.56408 5.42868 -26.87601 -7.146 1.88539 3.18271
0.00019 4e-05 0.00053 23.13245 -29.51335 -7.74173 48.11495 2.90192 -2.70824 -11.06016 -2.7378 -1.54936 40.58532 -105.45895 55.63597 8.65117 90.06601 7.08009 -2.1581 14.63004 106.96339 -53.79157 9.42866 -94.99461 2.05487 2.57744 44.83054 -4.39849 -8.52983 -21.48115 -6.82359 -1.91538 -3.18856 48.90364 10.55256 5.39782 -26.8789 -7.14551 1.88511 3.1822
0.00012 4e-05 0.00054 23.15928 -29.5209 -7.73825 48.13755 2.87848 -2.73611 -11.10414 -2.75235 -1.55028 41.0317 -105.57101 55.634 9.27607 89.90243 6.70469 -2.22312 15.08373 106.77574 -51.63786 9.58616 -94.95049 1.7886 2.44742 44.84204 -4.40979 -8.54283 -21.49256 -6.82152 -1.92215 -3.18988 48.92495 10.5336 5.34619 -26.8829 -7.14511 1.88513 3.1822
6e-05 4e-05 0.00055 23.1816 -29.52653 -7.73508 48.15879 2.8567 -2.75871 -11.1474 -2.76572 -1.55114 41.47375 -105.66971 55.61933 9.85664 89.74675 6.34867 -2.27777 15.49955 106.60197 -49.67742 9.74123 -94.90369 1.53202 2.3279 44.85132 -4.41792 -8.54574 -21.50248 -6.81958 -1.92801 -3.19122 48.94213 10.51806 5.30436 -26.88645 -7.14458 1.88519 3.18202
-0 4e-05 0.00057 23.20818 -29.53472 -7.73322 48.17718 2.83577 -2.78147 -11.18393 -2.77866 -1.55205 41.79557 -105.78505 55.6689 10.32646 89.64012 6.07951 -2.35276 15.82673 106.45946 -47.86966 9.84095 -94.933 1.25131 2.21333 44.86275 -4.42558 -8.54872 -21.51292 -6.81796 -1.93539 -3.19312 48.96278 10.50227 5.26056 -26.88972 -7.14441 1.88464 3.18164
-6e-05 4e-05 0.00057 23.2277 -29.53819 -7.72827 48.20249 2.81203 -2.80653 -11.23551 -2.79311 -1.5529 42.39441 -105.8685 55.58855 11.06726 89.42012 5.61343 -2.38909 16.37669 106.23921 -45.63771 10.06751 -94.79587 1.01908 2.08313 44.87065 -4.43614 -8.55745 -21.52309 -6.81557 -1.93984 -3.19374 48.97796 10.48519 5.21594 -26.89388 -7.14352 1.88536 3.18178
-0.00011 3e-05 0.00054 23.22615 -29.52853 -7.71565 48.24627 2.78214 -2.83666 -11.32831 -2.81148 -1.55358 43.63662 -105.88023 55.10078 12.48495 88.90722 4.57725 -2.30812 17.44913 105.83095 -42.23977 10.60388 -94.20513 0.92359 1.90883 44.86756 -4.45149 -8.57325 -21.531 -6.81115 -1.93635 -3.19113 48.97629 10.46764 5.17654 -26.89999 -7.14063 1.88986 3.18336
-0.00014 3e-05 0.0005 23.2172 -29.51387 -7.69988 48.2967 2.74945 -2.86847 -11.43583 -2.83118 -1.55421 45.16649 -105.85569 54.49121 14.176 88.28003 3.35319 -2.18946 18.75716 105.34301 -38.46058 11.27321 -93.4479 0.87736 1.72107 44.86083 -4.46979 -8.59465 -21.5387 -6.80597 -1.9298 -3.1872 48.96887 10.44894 5.13707 -26.90702 -7.13702 1.89554 3.18542
-0.00019 2e-05 0.00046 23.2114 -29.50113 -7.68521 48.34383 2.71764 -2.89854 -11.53596 -2.84996 -1.55487 46.6435 -105.83284 53.97157 15.76429 87.69858 2.24943 -2.09278 19.99296 104.88195 -34.92779 11.90241 -92.76905 0.8083 1.54429 44.85603 -4.48781 -8.61636 -21.54702 -6.80117 -1.9243 -3.18368 48.96414 10.42985 5.0956 -26.91377 -7.13374 1.90049 3.18722
-0.00021 3e-05 0.00042 23.2067 -29.49009 -7.67188 48.3925 2.68736 -2.93305 -11.63928 -2.87017 -1.55549 47.82753 -105.87077 53.30882 17.2684 87.14119 1.00302 -1.97518 21.06953 104.45976 -31.04604 12.4454 -92.07983 0.74043 1.34607 44.85032 -4.50174 -8.62793 -21.55318 -6.79624 -1.92018 -3.18092 48.95941 10.41398 5.06025 -26.91992 -7.13046 1.90639 3.18927
-0.00028 1e-05 0.00037 23.19797 -29.47412 -7.65506 48.43921 2.65327 -2.95863 -11.73934 -2.88769 -1.55618 49.64736 -105.77628 52.9114 19.00936 86.5079 0.00034 -1.89313 22.55278 103.93689 -27.83523 13.20117 -91.37022 0.6823 1.18966 44.84545 -4.52462 -8.66017 -21.56379 -6.79139 -1.91256 -3.17633 48.9531 10.39168 5.01456 -26.92757 -7.12701 1.91044 3.19081
